# Blender v2.80 (sub 75) OBJ File: ''
# www.blender.org
mtllib Anti.mtl
o Antiair_turret
v -0.099456 0.050001 0.150000
v -0.099456 -0.049999 -0.150000
v -0.099456 -0.049999 0.150000
v -0.099456 0.050001 -0.150000
v 0.100544 -0.049999 0.150000
v 0.100544 -0.049999 0.050000
v 0.100544 0.050001 0.150000
v 0.100544 -0.049999 -0.050000
v 0.100544 0.050001 0.050000
v 0.100544 -0.049999 -0.150000
v 0.100544 0.050001 -0.050000
v 0.100544 0.050001 -0.150000
v 0.100544 -0.049999 0.150000
v -0.099456 0.050001 0.150000
v -0.099456 -0.049999 0.150000
v 0.100544 0.050001 0.150000
v -0.099456 -0.049999 -0.150000
v -0.099456 0.050001 -0.150000
v 0.100544 -0.049999 -0.150000
v 0.100544 0.050001 -0.150000
v 0.000544 -0.049999 0.050000
v 0.100544 -0.049999 0.150000
v -0.099456 -0.049999 0.150000
v 0.100544 -0.049999 0.050000
v 0.000544 -0.049999 -0.050000
v 0.100544 -0.049999 -0.050000
v -0.099456 -0.049999 -0.150000
v 0.100544 -0.049999 -0.150000
v -0.099456 0.050001 0.150000
v 0.100544 0.050001 0.150000
v 0.000544 0.050001 0.050000
v 0.100544 0.050001 0.050000
v 0.000544 0.050001 -0.050000
v 0.100544 0.050001 -0.050000
v -0.099456 0.050001 -0.150000
v 0.100544 0.050001 -0.150000
vt 0.908203 0.500000
vt 0.908203 0.500000
vt 0.908203 0.500000
vt 0.908203 0.500000
vt 0.908203 0.500000
vt 0.908203 0.500000
vt 0.908203 0.500000
vt 0.814453 0.500000
vt 0.814453 0.500000
vt 0.814453 0.500000
vt 0.908203 0.500000
vt 0.908203 0.500000
vt 0.908203 0.500000
vt 0.908203 0.500000
vt 0.814453 0.500000
vt 0.908203 0.500000
vt 0.908203 0.500000
vt 0.908203 0.500000
vt 0.908203 0.500000
vt 0.908203 0.500000
vt 0.908203 0.500000
vt 0.908203 0.500000
vt 0.908203 0.500000
vt 0.908203 0.500000
vt 0.908203 0.500000
vt 0.908203 0.500000
vt 0.908203 0.500000
vt 0.908203 0.500000
vt 0.908203 0.500000
vt 0.814453 0.500000
vt 0.814453 0.500000
vt 0.814453 0.500000
vt 0.814453 0.500000
vt 0.908203 0.500000
vt 0.908203 0.500000
vt 0.908203 0.500000
vt 0.908203 0.500000
vt 0.908203 0.500000
vt 0.908203 0.500000
vt 0.908203 0.500000
vt 0.908203 0.500000
vt 0.814453 0.500000
vt 0.814453 0.500000
vt 0.814453 0.500000
vt 0.814453 0.500000
vt 0.908203 0.500000
vt 0.908203 0.500000
vt 0.908203 0.500000
vn -1.0000 0.0000 0.0000
vn 1.0000 -0.0000 0.0000
vn 0.0000 -0.0000 1.0000
vn 0.0000 0.0000 -1.0000
vn 0.0000 -1.0000 -0.0000
vn -0.0000 1.0000 0.0000
usemtl palette
s 1
f 1/1/1 2/2/1 3/3/1
f 4/4/1 2/2/1 1/1/1
f 5/5/2 6/6/2 7/7/2
f 6/8/2 8/9/2 9/10/2
f 7/7/2 6/6/2 9/11/2
f 8/12/2 10/13/2 11/14/2
f 9/10/2 8/9/2 11/15/2
f 11/14/2 10/13/2 12/16/2
f 13/17/3 14/18/3 15/19/3
f 16/20/3 14/18/3 13/17/3
f 17/21/4 18/22/4 19/23/4
f 19/23/4 18/22/4 20/24/4
f 21/25/5 22/26/5 23/27/5
f 24/28/5 22/26/5 21/25/5
f 25/29/5 21/25/5 23/27/5
f 25/30/5 24/31/5 21/32/5
f 26/33/5 24/31/5 25/30/5
f 27/34/5 25/29/5 23/27/5
f 27/34/5 26/35/5 25/29/5
f 28/36/5 26/35/5 27/34/5
f 29/37/6 30/38/6 31/39/6
f 31/39/6 30/38/6 32/40/6
f 29/37/6 31/39/6 33/41/6
f 31/42/6 32/43/6 33/44/6
f 33/44/6 32/43/6 34/45/6
f 29/37/6 33/41/6 35/46/6
f 33/41/6 34/47/6 35/46/6
f 35/46/6 34/47/6 36/48/6
