# Blender v2.80 (sub 75) OBJ File: ''
# www.blender.org
mtllib Large_turret.mtl
o Large_laser_turret
v -0.599747 -0.033335 0.199999
v -0.599747 -0.233335 -0.200001
v -0.599747 -0.233335 0.199999
v -0.599747 -0.033335 -0.200001
v -0.499747 0.066665 0.199999
v -0.499747 -0.033335 -0.200001
v -0.499747 -0.033335 0.199999
v -0.499747 0.066665 -0.200001
v -0.399747 0.066665 0.399999
v -0.399747 -0.233335 0.199999
v -0.399747 -0.233335 0.399999
v -0.399747 0.066665 0.299999
v -0.399747 0.066665 0.199999
v -0.399747 0.066665 -0.200001
v -0.399747 -0.233335 -0.400001
v -0.399747 -0.233335 -0.200001
v -0.399747 0.066665 -0.300001
v -0.399747 0.066665 -0.400001
v -0.399747 0.166665 0.300000
v -0.399747 0.166665 -0.300001
v -0.199747 -0.033335 0.399999
v -0.199747 -0.033335 0.299999
v -0.199747 0.066665 0.399999
v -0.199747 0.066665 0.299999
v -0.199747 -0.033335 -0.300001
v -0.199747 -0.033335 -0.400001
v -0.199747 0.066665 -0.300001
v -0.199747 0.066665 -0.400001
v -0.199747 0.066665 0.199999
v -0.199747 0.166665 0.300000
v -0.199747 0.066665 0.099999
v -0.199747 0.166665 0.099999
v -0.199747 0.066665 -0.100001
v -0.199747 0.066665 -0.200001
v -0.199747 0.166665 -0.100001
v -0.199747 0.166665 -0.300001
v 0.000253 0.066665 0.099999
v 0.000253 0.066665 -0.100001
v 0.000253 0.166665 0.099999
v 0.000253 0.166665 -0.100001
v 0.200253 -0.133335 0.199999
v 0.200253 -0.133335 -0.200001
v 0.200253 0.066665 0.199999
v 0.200253 0.066665 -0.200001
v 0.300253 -0.033335 0.299999
v 0.300253 -0.033335 0.199999
v 0.300253 0.066665 0.299999
v 0.300253 0.066665 0.199999
v 0.300253 -0.033335 -0.200001
v 0.300253 -0.033335 -0.300001
v 0.300253 0.066665 -0.200001
v 0.300253 0.066665 -0.300001
v 0.500253 -0.233335 0.399999
v 0.500253 -0.233335 -0.400001
v 0.500253 -0.133335 0.199999
v 0.500253 -0.133335 -0.200001
v 0.500253 -0.033335 0.399999
v 0.500253 -0.033335 0.199999
v 0.500253 -0.033335 -0.200001
v 0.500253 -0.033335 -0.400001
v -0.199747 -0.033335 0.399999
v -0.399747 0.066665 0.399999
v -0.399747 -0.233335 0.399999
v -0.199747 0.066665 0.399999
v 0.500253 -0.233335 0.399999
v 0.500253 -0.033335 0.399999
v -0.199747 0.066665 0.299999
v -0.399747 0.166665 0.300000
v -0.399747 0.066665 0.299999
v -0.199747 0.166665 0.300000
v 0.300253 -0.033335 0.299999
v -0.199747 -0.033335 0.299999
v 0.300253 0.066665 0.299999
v -0.499747 -0.033335 0.199999
v -0.599747 -0.033335 0.199999
v -0.599747 -0.233335 0.199999
v -0.399747 -0.233335 0.199999
v -0.499747 0.066665 0.199999
v -0.399747 0.066665 0.199999
v 0.000253 0.066665 0.099999
v -0.199747 0.166665 0.099999
v -0.199747 0.066665 0.099999
v 0.000253 0.166665 0.099999
v 0.300253 -0.033335 -0.200001
v 0.200253 0.066665 -0.200001
v 0.200253 -0.133335 -0.200001
v 0.300253 0.066665 -0.200001
v 0.500253 -0.133335 -0.200001
v 0.500253 -0.033335 -0.200001
v 0.200253 -0.133335 0.199999
v 0.200253 0.066665 0.199999
v 0.300253 -0.033335 0.199999
v 0.300253 0.066665 0.199999
v 0.500253 -0.133335 0.199999
v 0.500253 -0.033335 0.199999
v -0.199747 0.066665 -0.100001
v -0.199747 0.166665 -0.100001
v 0.000253 0.066665 -0.100001
v 0.000253 0.166665 -0.100001
v -0.599747 -0.233335 -0.200001
v -0.599747 -0.033335 -0.200001
v -0.499747 -0.033335 -0.200001
v -0.399747 -0.233335 -0.200001
v -0.499747 0.066665 -0.200001
v -0.399747 0.066665 -0.200001
v -0.399747 0.066665 -0.300001
v -0.399747 0.166665 -0.300001
v -0.199747 0.066665 -0.300001
v -0.199747 0.166665 -0.300001
v -0.199747 -0.033335 -0.300001
v 0.300253 -0.033335 -0.300001
v 0.300253 0.066665 -0.300001
v -0.399747 -0.233335 -0.400001
v -0.399747 0.066665 -0.400001
v -0.199747 -0.033335 -0.400001
v -0.199747 0.066665 -0.400001
v 0.500253 -0.233335 -0.400001
v 0.500253 -0.033335 -0.400001
v -0.399747 -0.233335 0.199999
v 0.500253 -0.233335 0.399999
v -0.399747 -0.233335 0.399999
v -0.599747 -0.233335 -0.200001
v -0.599747 -0.233335 0.199999
v -0.399747 -0.233335 -0.200001
v -0.399747 -0.233335 -0.400001
v 0.500253 -0.233335 -0.400001
v 0.200253 -0.133335 0.199999
v 0.500253 -0.133335 0.199999
v 0.200253 -0.133335 -0.200001
v 0.500253 -0.133335 -0.200001
v -0.199747 -0.033335 0.399999
v 0.500253 -0.033335 0.399999
v -0.199747 -0.033335 0.299999
v 0.300253 -0.033335 0.299999
v 0.300253 -0.033335 0.199999
v 0.500253 -0.033335 0.199999
v -0.599747 -0.033335 0.199999
v -0.499747 -0.033335 0.199999
v -0.599747 -0.033335 -0.200001
v -0.499747 -0.033335 -0.200001
v 0.300253 -0.033335 -0.200001
v 0.500253 -0.033335 -0.200001
v 0.300253 -0.033335 -0.300001
v -0.199747 -0.033335 -0.300001
v -0.199747 -0.033335 -0.400001
v 0.500253 -0.033335 -0.400001
v -0.399747 0.066665 0.399999
v -0.199747 0.066665 0.399999
v -0.399747 0.066665 0.299999
v -0.199747 0.066665 0.299999
v 0.300253 0.066665 0.299999
v -0.199747 0.066665 0.199999
v 0.000253 0.066665 0.199999
v 0.200253 0.066665 0.199999
v 0.300253 0.066665 0.199999
v -0.199747 0.066665 0.099999
v 0.000253 0.066665 0.099999
v 0.000253 0.066665 -0.100001
v -0.499747 0.066665 0.199999
v -0.399747 0.066665 0.199999
v -0.499747 0.066665 -0.200001
v -0.399747 0.066665 -0.200001
v -0.199747 0.066665 -0.100001
v -0.199747 0.066665 -0.200001
v 0.000253 0.066665 -0.200001
v 0.200253 0.066665 -0.200001
v 0.300253 0.066665 -0.200001
v -0.199747 0.066665 -0.300001
v 0.300253 0.066665 -0.300001
v -0.399747 0.066665 -0.300001
v -0.399747 0.066665 -0.400001
v -0.199747 0.066665 -0.400001
v -0.399747 0.166665 0.300000
v -0.199747 0.166665 0.300000
v -0.199747 0.166665 0.099999
v -0.199747 0.166665 -0.100001
v 0.000253 0.166665 0.099999
v 0.000253 0.166665 -0.100001
v -0.399747 0.166665 -0.300001
v -0.199747 0.166665 -0.300001
vt 0.908203 0.500000
vt 0.908203 0.500000
vt 0.908203 0.500000
vt 0.908203 0.500000
vt 0.908203 0.500000
vt 0.908203 0.500000
vt 0.908203 0.500000
vt 0.908203 0.500000
vt 0.908203 0.500000
vt 0.908203 0.500000
vt 0.908203 0.500000
vt 0.908203 0.500000
vt 0.908203 0.500000
vt 0.908203 0.500000
vt 0.908203 0.500000
vt 0.908203 0.500000
vt 0.908203 0.500000
vt 0.908203 0.500000
vt 0.908203 0.500000
vt 0.908203 0.500000
vt 0.908203 0.500000
vt 0.908203 0.500000
vt 0.908203 0.500000
vt 0.908203 0.500000
vt 0.908203 0.500000
vt 0.908203 0.500000
vt 0.908203 0.500000
vt 0.908203 0.500000
vt 0.908203 0.500000
vt 0.908203 0.500000
vt 0.908203 0.500000
vt 0.908203 0.500000
vt 0.908203 0.500000
vt 0.908203 0.500000
vt 0.908203 0.500000
vt 0.908203 0.500000
vt 0.908203 0.500000
vt 0.908203 0.500000
vt 0.908203 0.500000
vt 0.908203 0.500000
vt 0.783203 0.500000
vt 0.783203 0.500000
vt 0.783203 0.500000
vt 0.783203 0.500000
vt 0.908203 0.500000
vt 0.908203 0.500000
vt 0.908203 0.500000
vt 0.908203 0.500000
vt 0.908203 0.500000
vt 0.908203 0.500000
vt 0.908203 0.500000
vt 0.908203 0.500000
vt 0.908203 0.500000
vt 0.908203 0.500000
vt 0.908203 0.500000
vt 0.908203 0.500000
vt 0.908203 0.500000
vt 0.908203 0.500000
vt 0.908203 0.500000
vt 0.908203 0.500000
vt 0.908203 0.500000
vt 0.908203 0.500000
vt 0.908203 0.500000
vt 0.908203 0.500000
vt 0.908203 0.500000
vt 0.908203 0.500000
vt 0.908203 0.500000
vt 0.908203 0.500000
vt 0.908203 0.500000
vt 0.908203 0.500000
vt 0.908203 0.500000
vt 0.908203 0.500000
vt 0.908203 0.500000
vt 0.908203 0.500000
vt 0.908203 0.500000
vt 0.908203 0.500000
vt 0.908203 0.500000
vt 0.908203 0.500000
vt 0.908203 0.500000
vt 0.908203 0.500000
vt 0.908203 0.500000
vt 0.908203 0.500000
vt 0.908203 0.500000
vt 0.908203 0.500000
vt 0.908203 0.500000
vt 0.908203 0.500000
vt 0.908203 0.500000
vt 0.908203 0.500000
vt 0.908203 0.500000
vt 0.908203 0.500000
vt 0.908203 0.500000
vt 0.908203 0.500000
vt 0.908203 0.500000
vt 0.908203 0.500000
vt 0.908203 0.500000
vt 0.908203 0.500000
vt 0.908203 0.500000
vt 0.908203 0.500000
vt 0.908203 0.500000
vt 0.908203 0.500000
vt 0.908203 0.500000
vt 0.908203 0.500000
vt 0.908203 0.500000
vt 0.908203 0.500000
vt 0.908203 0.500000
vt 0.908203 0.500000
vt 0.908203 0.500000
vt 0.908203 0.500000
vt 0.908203 0.500000
vt 0.908203 0.500000
vt 0.908203 0.500000
vt 0.908203 0.500000
vt 0.908203 0.500000
vt 0.908203 0.500000
vt 0.908203 0.500000
vt 0.908203 0.500000
vt 0.908203 0.500000
vt 0.908203 0.500000
vt 0.908203 0.500000
vt 0.908203 0.500000
vt 0.908203 0.500000
vt 0.908203 0.500000
vt 0.908203 0.500000
vt 0.908203 0.500000
vt 0.908203 0.500000
vt 0.908203 0.500000
vt 0.908203 0.500000
vt 0.908203 0.500000
vt 0.908203 0.500000
vt 0.908203 0.500000
vt 0.908203 0.500000
vt 0.908203 0.500000
vt 0.908203 0.500000
vt 0.908203 0.500000
vt 0.908203 0.500000
vt 0.908203 0.500000
vt 0.908203 0.500000
vt 0.908203 0.500000
vt 0.908203 0.500000
vt 0.908203 0.500000
vt 0.908203 0.500000
vt 0.908203 0.500000
vt 0.908203 0.500000
vt 0.908203 0.500000
vt 0.908203 0.500000
vt 0.908203 0.500000
vt 0.908203 0.500000
vt 0.908203 0.500000
vt 0.908203 0.500000
vt 0.908203 0.500000
vt 0.908203 0.500000
vt 0.908203 0.500000
vt 0.908203 0.500000
vt 0.908203 0.500000
vt 0.908203 0.500000
vt 0.814453 0.500000
vt 0.814453 0.500000
vt 0.814453 0.500000
vt 0.783203 0.500000
vt 0.783203 0.500000
vt 0.783203 0.500000
vt 0.814453 0.500000
vt 0.783203 0.500000
vt 0.908203 0.500000
vt 0.908203 0.500000
vt 0.908203 0.500000
vt 0.908203 0.500000
vt 0.814453 0.500000
vt 0.814453 0.500000
vt 0.814453 0.500000
vt 0.783203 0.500000
vt 0.814453 0.500000
vt 0.783203 0.500000
vt 0.908203 0.500000
vt 0.908203 0.500000
vt 0.908203 0.500000
vt 0.908203 0.500000
vt 0.908203 0.500000
vt 0.908203 0.500000
vt 0.908203 0.500000
vt 0.908203 0.500000
vt 0.908203 0.500000
vt 0.908203 0.500000
vt 0.908203 0.500000
vt 0.908203 0.500000
vt 0.908203 0.500000
vt 0.908203 0.500000
vt 0.908203 0.500000
vt 0.908203 0.500000
vt 0.908203 0.500000
vn -1.0000 0.0000 0.0000
vn 1.0000 0.0000 0.0000
vn 0.0000 -0.0000 1.0000
vn 0.0000 0.0000 -1.0000
vn 0.0000 -1.0000 -0.0000
vn 0.0000 1.0000 0.0000
usemtl palette
s 1
f 1/1/1 2/2/1 3/3/1
f 4/4/1 2/2/1 1/1/1
f 5/5/1 6/6/1 7/7/1
f 8/8/1 6/6/1 5/5/1
f 9/9/1 10/10/1 11/11/1
f 12/12/1 10/10/1 9/9/1
f 13/13/1 10/10/1 12/12/1
f 14/14/1 15/15/1 16/16/1
f 17/17/1 15/15/1 14/14/1
f 18/18/1 15/15/1 17/17/1
f 19/19/1 13/13/1 12/12/1
f 19/19/1 17/17/1 14/14/1
f 19/19/1 14/14/1 13/13/1
f 20/20/1 17/17/1 19/19/1
f 21/21/2 22/22/2 23/23/2
f 23/23/2 22/22/2 24/24/2
f 25/25/2 26/26/2 27/27/2
f 27/27/2 26/26/2 28/28/2
f 24/24/2 29/29/2 30/30/2
f 29/29/2 31/31/2 30/30/2
f 30/30/2 31/31/2 32/32/2
f 33/33/2 34/34/2 35/35/2
f 34/34/2 27/27/2 35/35/2
f 35/35/2 27/27/2 36/36/2
f 37/37/2 38/38/2 39/39/2
f 39/39/2 38/38/2 40/40/2
f 41/41/2 42/42/2 43/43/2
f 43/43/2 42/42/2 44/44/2
f 45/45/2 46/46/2 47/47/2
f 47/47/2 46/46/2 48/48/2
f 49/49/2 50/50/2 51/51/2
f 51/51/2 50/50/2 52/52/2
f 53/53/2 54/54/2 55/55/2
f 55/55/2 54/54/2 56/56/2
f 53/53/2 55/55/2 57/57/2
f 57/57/2 55/55/2 58/58/2
f 56/56/2 54/54/2 59/59/2
f 59/59/2 54/54/2 60/60/2
f 61/61/3 62/62/3 63/63/3
f 64/64/3 62/62/3 61/61/3
f 65/65/3 61/61/3 63/63/3
f 66/66/3 61/61/3 65/65/3
f 67/67/3 68/68/3 69/69/3
f 70/70/3 68/68/3 67/67/3
f 71/71/3 67/67/3 72/72/3
f 73/73/3 67/67/3 71/71/3
f 74/74/3 75/75/3 76/76/3
f 77/77/3 74/74/3 76/76/3
f 77/77/3 78/78/3 74/74/3
f 79/79/3 78/78/3 77/77/3
f 80/80/3 81/81/3 82/82/3
f 83/83/3 81/81/3 80/80/3
f 84/84/3 85/85/3 86/86/3
f 87/87/3 85/85/3 84/84/3
f 88/88/3 84/84/3 86/86/3
f 89/89/3 84/84/3 88/88/3
f 90/90/4 91/91/4 92/92/4
f 92/92/4 91/91/4 93/93/4
f 90/90/4 92/92/4 94/94/4
f 94/94/4 92/92/4 95/95/4
f 96/96/4 97/97/4 98/98/4
f 98/98/4 97/97/4 99/99/4
f 100/100/4 101/101/4 102/102/4
f 100/100/4 102/102/4 103/103/4
f 102/102/4 104/104/4 103/103/4
f 103/103/4 104/104/4 105/105/4
f 106/106/4 107/107/4 108/108/4
f 108/108/4 107/107/4 109/109/4
f 110/110/4 108/108/4 111/111/4
f 111/111/4 108/108/4 112/112/4
f 113/113/4 114/114/4 115/115/4
f 115/115/4 114/114/4 116/116/4
f 113/113/4 115/115/4 117/117/4
f 117/117/4 115/115/4 118/118/4
f 119/119/5 120/120/5 121/121/5
f 122/122/5 119/119/5 123/123/5
f 124/124/5 120/120/5 119/119/5
f 124/124/5 119/119/5 122/122/5
f 125/125/5 120/120/5 124/124/5
f 126/126/5 120/120/5 125/125/5
f 127/127/6 128/128/6 129/129/6
f 129/129/6 128/128/6 130/130/6
f 131/131/6 132/132/6 133/133/6
f 133/133/6 132/132/6 134/134/6
f 134/134/6 132/132/6 135/135/6
f 135/135/6 132/132/6 136/136/6
f 137/137/6 138/138/6 139/139/6
f 139/139/6 138/138/6 140/140/6
f 141/141/6 142/142/6 143/143/6
f 144/144/6 143/143/6 145/145/6
f 143/143/6 142/142/6 146/146/6
f 145/145/6 143/143/6 146/146/6
f 147/147/6 148/148/6 149/149/6
f 149/149/6 148/148/6 150/150/6
f 150/150/6 151/151/6 152/152/6
f 152/152/6 151/151/6 153/153/6
f 153/153/6 151/151/6 154/154/6
f 154/154/6 151/151/6 155/155/6
f 152/156/6 153/157/6 156/158/6
f 153/159/6 154/160/6 157/161/6
f 156/158/6 153/157/6 157/162/6
f 157/161/6 154/160/6 158/163/6
f 159/164/6 160/165/6 161/166/6
f 161/166/6 160/165/6 162/167/6
f 163/168/6 158/169/6 164/170/6
f 158/163/6 154/160/6 165/171/6
f 164/170/6 158/169/6 165/172/6
f 165/171/6 154/160/6 166/173/6
f 166/174/6 167/175/6 168/176/6
f 165/177/6 166/174/6 168/176/6
f 164/178/6 165/177/6 168/176/6
f 168/176/6 167/175/6 169/179/6
f 170/180/6 168/176/6 171/181/6
f 171/181/6 168/176/6 172/182/6
f 173/183/6 174/184/6 175/185/6
f 173/183/6 175/185/6 176/186/6
f 175/185/6 177/187/6 176/186/6
f 176/186/6 177/187/6 178/188/6
f 173/183/6 176/186/6 179/189/6
f 179/189/6 176/186/6 180/190/6
